<?xml version="1.0" encoding="UTF-8"?>
<svg xmlns="http://www.w3.org/2000/svg" xmlns:xlink="http://www.w3.org/1999/xlink" width="333px" height="269px" viewBox="0 0 333 269" version="1.1">
<g id="surface1">
<path style=" stroke:none;fill-rule:nonzero;fill:rgb(0%,0%,0%);fill-opacity:1;" d="M 128.019531 9.394531 C 110.195312 27.804688 103.546875 34.640625 99.550781 38.730469 C 97.273438 41.0625 91.929688 46.550781 87.695312 50.921875 C 80.421875 58.449219 74.121094 64.9375 52.6875 87.003906 C 47.664062 92.171875 39.496094 100.59375 34.542969 105.722656 C 29.585938 110.851562 23.925781 116.660156 21.980469 118.644531 C 17.53125 123.148438 8.339844 132.675781 8.273438 132.859375 C 8.21875 133.035156 3.542969 128.359375 77.023438 201.742188 L 138.675781 263.296875 L 148.960938 253.050781 C 154.621094 247.417969 162.613281 239.488281 166.714844 235.453125 L 174.175781 228.097656 L 183.167969 237.050781 C 188.109375 241.980469 196.730469 250.574219 202.3125 256.128906 L 212.460938 266.253906 L 217.363281 261.40625 C 220.054688 258.742188 228.847656 250.054688 236.894531 242.101562 C 244.925781 234.144531 251.558594 227.628906 251.625 227.628906 C 251.734375 227.628906 257.609375 233.640625 273.941406 250.441406 C 284.398438 261.207031 287.367188 264.203125 287.554688 264.203125 C 287.632812 264.203125 296.199219 255.625 306.578125 245.125 L 325.453125 226.046875 L 321.484375 222.101562 C 300.449219 201.222656 287.101562 187.992188 287.046875 187.992188 C 287.007812 187.992188 280.335938 194.722656 272.207031 202.941406 C 264.082031 211.175781 257.394531 217.917969 257.355469 217.945312 C 257.316406 217.957031 250.722656 211.46875 242.703125 203.515625 C 234.683594 195.5625 215.539062 176.589844 200.152344 161.332031 C 184.765625 146.089844 172.164062 133.582031 172.152344 133.527344 C 172.136719 133.472656 174.550781 130.941406 177.507812 127.90625 C 180.476562 124.867188 187.136719 117.992188 192.320312 112.648438 C 197.488281 107.292969 203.363281 101.269531 205.347656 99.257812 C 207.347656 97.246094 212.476562 91.984375 216.75 87.5625 C 221.027344 83.152344 228.714844 75.238281 233.828125 69.976562 C 238.929688 64.726562 245.820312 57.636719 249.121094 54.226562 C 252.4375 50.816406 255.183594 48.019531 255.222656 47.992188 C 255.277344 47.976562 257.886719 50.496094 261.03125 53.585938 C 264.1875 56.691406 269.492188 61.859375 272.820312 65.070312 C 276.152344 68.296875 280.667969 72.691406 282.839844 74.851562 C 285.011719 77.007812 286.875 78.742188 286.96875 78.714844 C 287.128906 78.660156 293.136719 72.480469 309.214844 55.824219 C 313.984375 50.882812 319.378906 45.328125 321.191406 43.5 C 323.015625 41.664062 324.585938 40.050781 324.695312 39.890625 C 324.878906 39.625 324.5625 39.289062 317.472656 32.347656 C 313.398438 28.367188 307.402344 22.515625 304.164062 19.371094 C 300.914062 16.226562 295.480469 10.9375 292.070312 7.621094 C 288.660156 4.316406 285.824219 1.597656 285.757812 1.597656 C 285.703125 1.597656 283.464844 3.863281 280.800781 6.621094 C 278.136719 9.394531 274.324219 13.308594 272.339844 15.320312 C 270.355469 17.332031 266.199219 21.625 263.082031 24.847656 C 259.980469 28.074219 255.398438 32.789062 252.90625 35.320312 L 248.375 39.929688 L 243.980469 35.734375 C 241.570312 33.429688 237.734375 29.738281 235.453125 27.527344 C 233.191406 25.316406 228.753906 21.039062 225.597656 18.011719 C 222.453125 14.988281 217.804688 10.539062 215.285156 8.113281 L 210.71875 3.703125 L 210.089844 4.289062 C 209.757812 4.625 207.894531 6.382812 205.949219 8.195312 C 204.003906 10.019531 201.125 12.75 199.554688 14.269531 C 197.980469 15.789062 194.542969 19.066406 191.933594 21.542969 C 180.0625 32.777344 178.027344 34.707031 175.816406 36.867188 C 174.523438 38.132812 173.417969 39.171875 173.351562 39.171875 C 173.191406 39.171875 169.847656 35.761719 165.71875 31.375 C 163.707031 29.246094 160.5625 25.953125 158.722656 24.046875 C 156.886719 22.144531 153.195312 18.292969 150.519531 15.480469 C 139.742188 4.15625 136.597656 0.878906 136.464844 0.839844 C 136.398438 0.8125 132.585938 4.664062 128.019531 9.394531 M 108.382812 48.832031 C 109.167969 49.710938 110.488281 51.148438 111.3125 52.027344 C 112.140625 52.90625 113.976562 54.917969 115.414062 56.492188 C 118.148438 59.488281 121.929688 63.621094 127.085938 69.214844 C 128.765625 71.039062 131.507812 74.039062 133.160156 75.851562 L 136.171875 79.15625 L 134.839844 80.582031 C 134.09375 81.367188 132.945312 82.539062 132.28125 83.203125 C 131.601562 83.859375 125.964844 89.652344 119.746094 96.0625 C 98.898438 117.550781 96.578125 119.949219 89.304688 127.371094 C 85.335938 131.4375 81.953125 134.941406 81.78125 135.140625 L 81.488281 135.527344 L 83.472656 137.523438 C 84.5625 138.617188 96.59375 150.554688 110.207031 164.039062 C 123.820312 177.519531 134.933594 188.605469 134.917969 188.671875 C 134.890625 188.738281 128.550781 195.121094 120.824219 202.847656 L 106.769531 216.90625 L 94.113281 204.273438 C 87.160156 197.332031 68.191406 178.402344 51.980469 162.226562 L 22.5 132.792969 L 24.871094 130.382812 C 26.191406 129.050781 30.664062 124.453125 34.847656 120.136719 C 39.019531 115.832031 46.597656 108.027344 51.6875 102.789062 C 56.777344 97.554688 65.222656 88.839844 70.457031 83.445312 C 75.691406 78.035156 81.660156 71.90625 83.722656 69.816406 C 85.789062 67.722656 90.078125 63.3125 93.25 60.023438 C 96.417969 56.71875 100.667969 52.359375 102.695312 50.335938 L 106.371094 46.632812 L 106.652344 46.9375 C 106.808594 47.097656 107.582031 47.949219 108.382812 48.832031 M 181.53125 50.722656 C 182.34375 51.589844 184.207031 53.601562 185.660156 55.1875 C 187.113281 56.769531 189.828125 59.730469 191.695312 61.753906 C 204.722656 75.851562 209.304688 80.875 209.25 81.03125 C 209.226562 81.113281 206.347656 84.085938 202.855469 87.65625 C 196.050781 94.597656 189.496094 101.339844 173.988281 117.339844 C 168.609375 122.894531 162.679688 128.984375 160.800781 130.863281 L 157.390625 134.300781 L 171.511719 148.328125 C 179.277344 156.042969 191.480469 168.128906 198.621094 175.175781 C 205.761719 182.222656 211.621094 188.058594 211.648438 188.125 C 211.6875 188.246094 181.34375 218.769531 181.183594 218.769531 C 181.117188 218.769531 160.640625 198.414062 98.523438 136.578125 L 96.554688 134.605469 L 103.828125 127.160156 C 115.148438 115.566406 132.761719 97.539062 145.335938 84.671875 C 151.636719 78.222656 161.988281 67.601562 168.355469 61.0625 C 174.710938 54.53125 179.929688 49.175781 179.972656 49.175781 C 180.011719 49.164062 180.71875 49.871094 181.53125 50.722656 "/>
</g>
</svg>
